<svg width="96" height="27" viewBox="0 0 96 27" fill="none" xmlns="http://www.w3.org/2000/svg">
<path d="M34.216 17.628C34.216 17.716 34.192 17.78 34.144 17.82C34.096 17.852 34.032 17.88 33.952 17.904C33.904 17.92 33.82 17.94 33.7 17.964C33.588 17.98 33.448 17.996 33.28 18.012C33.112 18.036 32.924 18.056 32.716 18.072C32.508 18.088 32.288 18.096 32.056 18.096C31.696 18.096 31.316 18.044 30.916 17.94C30.516 17.836 30.148 17.648 29.812 17.376C29.484 17.096 29.208 16.72 28.984 16.248C28.768 15.776 28.66 15.168 28.66 14.424V12.66C28.66 11.908 28.768 11.296 28.984 10.824C29.208 10.344 29.484 9.968 29.812 9.696C30.148 9.424 30.516 9.24 30.916 9.144C31.316 9.04 31.696 8.988 32.056 8.988C32.288 8.988 32.508 8.996 32.716 9.012C32.924 9.028 33.112 9.048 33.28 9.072C33.448 9.088 33.588 9.108 33.7 9.132C33.82 9.156 33.904 9.172 33.952 9.18C34.032 9.204 34.096 9.236 34.144 9.276C34.192 9.308 34.216 9.368 34.216 9.456V10.26C34.216 10.332 34.196 10.392 34.156 10.44C34.124 10.488 34.064 10.512 33.976 10.512H33.952C33.848 10.504 33.72 10.496 33.568 10.488C33.424 10.472 33.268 10.46 33.1 10.452C32.932 10.444 32.76 10.436 32.584 10.428C32.408 10.42 32.24 10.416 32.08 10.416C31.824 10.416 31.588 10.456 31.372 10.536C31.164 10.608 30.984 10.732 30.832 10.908C30.68 11.076 30.56 11.304 30.472 11.592C30.384 11.88 30.34 12.236 30.34 12.66V14.424C30.34 14.84 30.384 15.192 30.472 15.48C30.56 15.768 30.68 16 30.832 16.176C30.984 16.352 31.164 16.48 31.372 16.56C31.588 16.632 31.824 16.668 32.08 16.668C32.24 16.668 32.408 16.664 32.584 16.656C32.76 16.648 32.932 16.64 33.1 16.632C33.268 16.624 33.424 16.616 33.568 16.608C33.72 16.592 33.848 16.58 33.952 16.572H33.976C34.064 16.572 34.124 16.596 34.156 16.644C34.196 16.692 34.216 16.752 34.216 16.824V17.628ZM39.0217 12.252C39.0217 12.316 38.9977 12.372 38.9497 12.42C38.9017 12.468 38.8457 12.492 38.7817 12.492C38.4537 12.492 38.1577 12.532 37.8937 12.612C37.6377 12.684 37.3817 12.788 37.1257 12.924V17.748C37.1257 17.812 37.1017 17.872 37.0537 17.928C37.0057 17.976 36.9497 18 36.8857 18H35.7817C35.7177 18 35.6617 17.976 35.6137 17.928C35.5657 17.872 35.5417 17.812 35.5417 17.748V11.472C35.5417 11.408 35.5657 11.352 35.6137 11.304C35.6617 11.256 35.7177 11.232 35.7817 11.232H36.8257C36.8897 11.232 36.9457 11.256 36.9937 11.304C37.0417 11.352 37.0657 11.408 37.0657 11.472V11.724C37.3617 11.492 37.6617 11.34 37.9657 11.268C38.2697 11.188 38.5417 11.148 38.7817 11.148C38.8457 11.148 38.9017 11.172 38.9497 11.22C38.9977 11.268 39.0217 11.324 39.0217 11.388V12.252ZM45.6817 11.436C45.6817 11.468 45.6777 11.492 45.6697 11.508L43.6657 18.516C43.5697 18.844 43.4657 19.124 43.3537 19.356C43.2417 19.596 43.0937 19.792 42.9097 19.944C42.7337 20.104 42.5097 20.22 42.2377 20.292C41.9657 20.364 41.6257 20.4 41.2177 20.4C41.1217 20.4 41.0137 20.396 40.8937 20.388C40.7737 20.38 40.6537 20.368 40.5337 20.352C40.4217 20.336 40.3137 20.32 40.2097 20.304C40.1057 20.288 40.0177 20.268 39.9457 20.244C39.8817 20.228 39.8217 20.204 39.7657 20.172C39.7177 20.148 39.6937 20.104 39.6937 20.04V19.272C39.6937 19.208 39.7177 19.156 39.7657 19.116C39.8137 19.076 39.8697 19.056 39.9337 19.056H39.9577C40.0377 19.056 40.1377 19.06 40.2577 19.068C40.3857 19.076 40.5097 19.084 40.6297 19.092C40.7577 19.1 40.8817 19.108 41.0017 19.116C41.1217 19.124 41.2257 19.128 41.3137 19.128C41.5697 19.128 41.7697 19.076 41.9137 18.972C42.0577 18.876 42.1737 18.672 42.2617 18.36L42.3577 18H42.1777C42.0897 18 41.9977 17.992 41.9017 17.976C41.8057 17.952 41.7097 17.908 41.6137 17.844C41.5257 17.78 41.4377 17.684 41.3497 17.556C41.2697 17.42 41.1977 17.236 41.1337 17.004L39.5617 11.508C39.5537 11.484 39.5497 11.456 39.5497 11.424C39.5497 11.296 39.6257 11.232 39.7777 11.232H40.9897C41.0457 11.232 41.0937 11.256 41.1337 11.304C41.1737 11.344 41.2017 11.392 41.2177 11.448L42.4297 16.332C42.4537 16.436 42.4777 16.508 42.5017 16.548C42.5257 16.58 42.5577 16.596 42.5977 16.596H42.6097H42.6697H42.7057L44.0017 11.436C44.0177 11.38 44.0457 11.332 44.0857 11.292C44.1257 11.252 44.1777 11.232 44.2417 11.232H45.4657C45.5297 11.232 45.5817 11.252 45.6217 11.292C45.6617 11.332 45.6817 11.38 45.6817 11.436ZM52.3606 15.084C52.3606 16.028 52.1246 16.768 51.6526 17.304C51.1806 17.832 50.4606 18.096 49.4926 18.096C49.3486 18.096 49.1766 18.088 48.9766 18.072C48.7766 18.064 48.5646 18.044 48.3406 18.012V20.136C48.3406 20.2 48.3166 20.256 48.2686 20.304C48.2206 20.352 48.1646 20.376 48.1006 20.376H46.9966C46.9326 20.376 46.8766 20.352 46.8286 20.304C46.7806 20.256 46.7566 20.2 46.7566 20.136V11.784C46.7566 11.696 46.7766 11.632 46.8166 11.592C46.8566 11.544 46.9446 11.5 47.0806 11.46C47.4566 11.364 47.8566 11.288 48.2806 11.232C48.7046 11.176 49.1086 11.148 49.4926 11.148C50.4606 11.148 51.1806 11.416 51.6526 11.952C52.1246 12.48 52.3606 13.216 52.3606 14.16V15.084ZM50.7766 14.16C50.7766 13.912 50.7566 13.684 50.7166 13.476C50.6846 13.268 50.6206 13.088 50.5246 12.936C50.4286 12.784 50.2966 12.664 50.1286 12.576C49.9606 12.488 49.7486 12.444 49.4926 12.444C49.2766 12.444 49.0566 12.452 48.8326 12.468C48.6166 12.484 48.4526 12.504 48.3406 12.528V16.716C48.5086 16.74 48.7046 16.76 48.9286 16.776C49.1606 16.792 49.3486 16.8 49.4926 16.8C49.7486 16.8 49.9606 16.756 50.1286 16.668C50.2966 16.58 50.4286 16.46 50.5246 16.308C50.6206 16.156 50.6846 15.976 50.7166 15.768C50.7566 15.56 50.7766 15.332 50.7766 15.084V14.16ZM57.228 17.796C57.228 17.916 57.152 17.988 57 18.012C56.856 18.036 56.716 18.056 56.58 18.072C56.452 18.088 56.32 18.096 56.184 18.096C55.848 18.096 55.556 18.072 55.308 18.024C55.068 17.976 54.872 17.884 54.72 17.748C54.568 17.612 54.456 17.42 54.384 17.172C54.312 16.916 54.276 16.588 54.276 16.188V12.42L53.148 12.252C53.084 12.236 53.028 12.208 52.98 12.168C52.932 12.128 52.908 12.076 52.908 12.012V11.472C52.908 11.408 52.932 11.352 52.98 11.304C53.028 11.256 53.084 11.232 53.148 11.232H54.276V10.248C54.276 10.184 54.3 10.132 54.348 10.092C54.396 10.052 54.452 10.024 54.516 10.008L55.632 9.816H55.68C55.808 9.816 55.872 9.876 55.872 9.996V11.232H56.952C57.016 11.232 57.072 11.256 57.12 11.304C57.168 11.352 57.192 11.408 57.192 11.472V12.18C57.192 12.244 57.168 12.3 57.12 12.348C57.072 12.396 57.016 12.42 56.952 12.42H55.872V16.188C55.872 16.34 55.876 16.46 55.884 16.548C55.892 16.636 55.912 16.704 55.944 16.752C55.976 16.8 56.02 16.832 56.076 16.848C56.14 16.856 56.228 16.86 56.34 16.86H56.976C57.144 16.86 57.228 16.92 57.228 17.04V17.796ZM63.7261 15.108C63.7261 15.54 63.6621 15.94 63.5341 16.308C63.4141 16.668 63.2341 16.98 62.9941 17.244C62.7541 17.508 62.4541 17.716 62.0941 17.868C61.7421 18.02 61.3301 18.096 60.8581 18.096C60.3861 18.096 59.9701 18.02 59.6101 17.868C59.2581 17.716 58.9621 17.508 58.7221 17.244C58.4821 16.98 58.2981 16.668 58.1701 16.308C58.0501 15.94 57.9901 15.54 57.9901 15.108V14.136C57.9901 13.704 58.0501 13.308 58.1701 12.948C58.2981 12.58 58.4821 12.264 58.7221 12C58.9621 11.736 59.2581 11.528 59.6101 11.376C59.9701 11.224 60.3861 11.148 60.8581 11.148C61.3301 11.148 61.7421 11.224 62.0941 11.376C62.4541 11.528 62.7541 11.736 62.9941 12C63.2341 12.264 63.4141 12.58 63.5341 12.948C63.6621 13.308 63.7261 13.704 63.7261 14.136V15.108ZM62.1421 14.136C62.1421 13.64 62.0341 13.248 61.8181 12.96C61.6021 12.664 61.2821 12.516 60.8581 12.516C60.4341 12.516 60.1141 12.664 59.8981 12.96C59.6821 13.248 59.5741 13.64 59.5741 14.136V15.108C59.5741 15.604 59.6821 16 59.8981 16.296C60.1141 16.584 60.4341 16.728 60.8581 16.728C61.2821 16.728 61.6021 16.584 61.8181 16.296C62.0341 16 62.1421 15.604 62.1421 15.108V14.136ZM73.6047 15.588C73.6047 15.892 73.5527 16.196 73.4487 16.5C73.3447 16.796 73.1687 17.064 72.9207 17.304C72.6807 17.536 72.3567 17.728 71.9487 17.88C71.5487 18.024 71.0487 18.096 70.4487 18.096C69.9927 18.096 69.5967 18.076 69.2607 18.036C68.9247 17.996 68.6127 17.944 68.3247 17.88C68.2607 17.864 68.2047 17.836 68.1567 17.796C68.1167 17.756 68.0967 17.704 68.0967 17.64V16.776C68.0967 16.712 68.1167 16.66 68.1567 16.62C68.2047 16.572 68.2607 16.548 68.3247 16.548H68.3487C68.4687 16.564 68.6247 16.58 68.8167 16.596C69.0167 16.604 69.2207 16.616 69.4287 16.632C69.6367 16.64 69.8327 16.648 70.0167 16.656C70.2087 16.664 70.3607 16.668 70.4727 16.668C71.0087 16.668 71.3727 16.576 71.5647 16.392C71.7647 16.208 71.8647 15.94 71.8647 15.588C71.8647 15.468 71.8487 15.364 71.8167 15.276C71.7847 15.18 71.7287 15.088 71.6487 15C71.5687 14.912 71.4647 14.824 71.3367 14.736C71.2087 14.64 71.0447 14.532 70.8447 14.412L69.2607 13.464C68.9807 13.296 68.7487 13.128 68.5647 12.96C68.3887 12.792 68.2447 12.62 68.1327 12.444C68.0287 12.26 67.9527 12.072 67.9047 11.88C67.8647 11.68 67.8447 11.476 67.8447 11.268C67.8447 10.94 67.8967 10.636 68.0007 10.356C68.1047 10.076 68.2727 9.836 68.5047 9.636C68.7447 9.428 69.0527 9.268 69.4287 9.156C69.8127 9.044 70.2847 8.988 70.8447 8.988C71.0447 8.988 71.2567 8.996 71.4807 9.012C71.7047 9.02 71.9247 9.036 72.1407 9.06C72.3567 9.084 72.5527 9.108 72.7287 9.132C72.9047 9.156 73.0447 9.18 73.1487 9.204C73.2127 9.22 73.2647 9.248 73.3047 9.288C73.3447 9.32 73.3647 9.368 73.3647 9.432V10.32C73.3647 10.384 73.3447 10.436 73.3047 10.476C73.2727 10.516 73.2247 10.536 73.1607 10.536H73.1367C72.7367 10.496 72.3407 10.468 71.9487 10.452C71.5567 10.428 71.1647 10.416 70.7727 10.416C70.3247 10.416 70.0007 10.492 69.8007 10.644C69.6087 10.788 69.5127 10.996 69.5127 11.268C69.5127 11.364 69.5247 11.456 69.5487 11.544C69.5807 11.624 69.6327 11.708 69.7047 11.796C69.7847 11.876 69.8887 11.96 70.0167 12.048C70.1447 12.136 70.3047 12.232 70.4967 12.336L71.9367 13.14C72.2647 13.324 72.5367 13.512 72.7527 13.704C72.9687 13.888 73.1367 14.08 73.2567 14.28C73.3847 14.48 73.4727 14.688 73.5207 14.904C73.5767 15.12 73.6047 15.348 73.6047 15.588ZM78.2866 17.796C78.2866 17.916 78.2106 17.988 78.0586 18.012C77.9146 18.036 77.7746 18.056 77.6386 18.072C77.5106 18.088 77.3786 18.096 77.2426 18.096C76.9066 18.096 76.6146 18.072 76.3666 18.024C76.1266 17.976 75.9306 17.884 75.7786 17.748C75.6266 17.612 75.5146 17.42 75.4426 17.172C75.3706 16.916 75.3346 16.588 75.3346 16.188V12.42L74.2066 12.252C74.1426 12.236 74.0866 12.208 74.0386 12.168C73.9906 12.128 73.9666 12.076 73.9666 12.012V11.472C73.9666 11.408 73.9906 11.352 74.0386 11.304C74.0866 11.256 74.1426 11.232 74.2066 11.232H75.3346V10.248C75.3346 10.184 75.3586 10.132 75.4066 10.092C75.4546 10.052 75.5106 10.024 75.5746 10.008L76.6906 9.816H76.7386C76.8666 9.816 76.9306 9.876 76.9306 9.996V11.232H78.0106C78.0746 11.232 78.1306 11.256 78.1786 11.304C78.2266 11.352 78.2506 11.408 78.2506 11.472V12.18C78.2506 12.244 78.2266 12.3 78.1786 12.348C78.1306 12.396 78.0746 12.42 78.0106 12.42H76.9306V16.188C76.9306 16.34 76.9346 16.46 76.9426 16.548C76.9506 16.636 76.9706 16.704 77.0026 16.752C77.0346 16.8 77.0786 16.832 77.1346 16.848C77.1986 16.856 77.2866 16.86 77.3986 16.86H78.0346C78.2026 16.86 78.2866 16.92 78.2866 17.04V17.796ZM84.3858 17.76C84.3858 17.824 84.3618 17.88 84.3138 17.928C84.2658 17.976 84.2098 18 84.1458 18H83.1258C83.0618 18 83.0058 17.976 82.9578 17.928C82.9098 17.88 82.8858 17.824 82.8858 17.76V17.568C82.6058 17.736 82.3258 17.868 82.0458 17.964C81.7658 18.052 81.4818 18.096 81.1938 18.096C80.9458 18.096 80.6978 18.068 80.4498 18.012C80.2018 17.956 79.9778 17.852 79.7778 17.7C79.5858 17.548 79.4258 17.344 79.2978 17.088C79.1778 16.832 79.1178 16.5 79.1178 16.092V16.044C79.1178 15.7 79.1698 15.4 79.2738 15.144C79.3858 14.888 79.5578 14.672 79.7898 14.496C80.0298 14.32 80.3338 14.188 80.7018 14.1C81.0778 14.012 81.5258 13.968 82.0458 13.968H82.8018V13.44C82.8018 13.048 82.7138 12.788 82.5378 12.66C82.3698 12.532 82.1058 12.468 81.7458 12.468C81.3618 12.468 80.9898 12.48 80.6298 12.504C80.2698 12.52 79.9898 12.54 79.7898 12.564H79.7298C79.6658 12.564 79.6138 12.552 79.5738 12.528C79.5338 12.504 79.5138 12.448 79.5138 12.36V11.592C79.5138 11.456 79.5898 11.372 79.7418 11.34C79.9818 11.292 80.2698 11.248 80.6058 11.208C80.9498 11.168 81.3298 11.148 81.7458 11.148C82.6018 11.148 83.2538 11.336 83.7018 11.712C84.1578 12.088 84.3858 12.664 84.3858 13.44V17.76ZM82.8018 15.024H82.0458C81.7738 15.024 81.5498 15.048 81.3738 15.096C81.2058 15.136 81.0698 15.2 80.9658 15.288C80.8698 15.368 80.8018 15.472 80.7618 15.6C80.7298 15.728 80.7138 15.876 80.7138 16.044V16.092C80.7138 16.388 80.7818 16.588 80.9178 16.692C81.0538 16.788 81.2738 16.836 81.5778 16.836C81.7938 16.836 82.0058 16.804 82.2138 16.74C82.4298 16.676 82.6258 16.596 82.8018 16.5V15.024ZM89.3842 17.796C89.3842 17.916 89.3082 17.988 89.1562 18.012C89.0122 18.036 88.8722 18.056 88.7362 18.072C88.6082 18.088 88.4762 18.096 88.3402 18.096C88.0042 18.096 87.7122 18.072 87.4642 18.024C87.2242 17.976 87.0282 17.884 86.8762 17.748C86.7242 17.612 86.6122 17.42 86.5402 17.172C86.4682 16.916 86.4322 16.588 86.4322 16.188V12.42L85.3042 12.252C85.2402 12.236 85.1842 12.208 85.1362 12.168C85.0882 12.128 85.0642 12.076 85.0642 12.012V11.472C85.0642 11.408 85.0882 11.352 85.1362 11.304C85.1842 11.256 85.2402 11.232 85.3042 11.232H86.4322V10.248C86.4322 10.184 86.4562 10.132 86.5042 10.092C86.5522 10.052 86.6082 10.024 86.6722 10.008L87.7882 9.816H87.8362C87.9642 9.816 88.0282 9.876 88.0282 9.996V11.232H89.1082C89.1722 11.232 89.2282 11.256 89.2762 11.304C89.3242 11.352 89.3482 11.408 89.3482 11.472V12.18C89.3482 12.244 89.3242 12.3 89.2762 12.348C89.2282 12.396 89.1722 12.42 89.1082 12.42H88.0282V16.188C88.0282 16.34 88.0322 16.46 88.0402 16.548C88.0482 16.636 88.0682 16.704 88.1002 16.752C88.1322 16.8 88.1762 16.832 88.2322 16.848C88.2962 16.856 88.3842 16.86 88.4962 16.86H89.1322C89.3002 16.86 89.3842 16.92 89.3842 17.04V17.796ZM95.0155 16.224C95.0155 16.488 94.9675 16.736 94.8715 16.968C94.7755 17.192 94.6275 17.388 94.4275 17.556C94.2355 17.724 93.9915 17.856 93.6955 17.952C93.3995 18.048 93.0555 18.096 92.6635 18.096C92.5435 18.096 92.3955 18.092 92.2195 18.084C92.0515 18.076 91.8675 18.06 91.6675 18.036C91.4675 18.02 91.2675 18 91.0675 17.976C90.8675 17.944 90.6835 17.904 90.5155 17.856C90.3635 17.816 90.2875 17.724 90.2875 17.58V16.86C90.2875 16.812 90.3035 16.768 90.3355 16.728C90.3755 16.688 90.4275 16.668 90.4915 16.668H90.5395C90.6835 16.684 90.8515 16.7 91.0435 16.716C91.2435 16.732 91.4395 16.748 91.6315 16.764C91.8235 16.772 92.0035 16.78 92.1715 16.788C92.3395 16.796 92.4675 16.8 92.5555 16.8C92.7395 16.8 92.8875 16.788 92.9995 16.764C93.1115 16.732 93.1955 16.692 93.2515 16.644C93.3155 16.588 93.3555 16.524 93.3715 16.452C93.3955 16.38 93.4075 16.304 93.4075 16.224C93.4075 16.112 93.3675 16.012 93.2875 15.924C93.2075 15.836 93.0715 15.732 92.8795 15.612L91.2355 14.604C90.9395 14.42 90.6955 14.188 90.5035 13.908C90.3195 13.62 90.2275 13.3 90.2275 12.948C90.2275 11.748 90.9875 11.148 92.5075 11.148C92.7475 11.148 92.9635 11.156 93.1555 11.172C93.3555 11.18 93.5395 11.196 93.7075 11.22C93.8755 11.244 94.0355 11.272 94.1875 11.304C94.3395 11.328 94.4915 11.356 94.6435 11.388C94.7875 11.428 94.8595 11.52 94.8595 11.664V12.36C94.8595 12.512 94.7955 12.588 94.6675 12.588H94.6195C94.5315 12.58 94.4115 12.568 94.2595 12.552C94.1075 12.528 93.9395 12.512 93.7555 12.504C93.5715 12.488 93.3795 12.476 93.1795 12.468C92.9875 12.452 92.8075 12.444 92.6395 12.444C92.3515 12.444 92.1395 12.484 92.0035 12.564C91.8755 12.636 91.8115 12.764 91.8115 12.948C91.8115 13.044 91.8515 13.128 91.9315 13.2C92.0195 13.272 92.1395 13.352 92.2915 13.44L93.8635 14.4C94.1115 14.552 94.3115 14.704 94.4635 14.856C94.6155 15.008 94.7315 15.16 94.8115 15.312C94.8995 15.464 94.9555 15.616 94.9795 15.768C95.0035 15.92 95.0155 16.072 95.0155 16.224Z" fill="#5887F6"/>
<path d="M10.9841 17.7169H11.8713C11.9164 17.7152 11.9603 17.7023 11.999 17.6792C12.0378 17.6562 12.0701 17.6238 12.0931 17.585L16.3853 10.0498C16.4075 10.0113 16.4192 9.96752 16.419 9.923C16.4188 9.87848 16.4069 9.8348 16.3843 9.79642C16.3618 9.75803 16.3295 9.72631 16.2907 9.70448C16.2519 9.68266 16.208 9.67151 16.1635 9.67218H15.2763C15.2317 9.67269 15.1879 9.68451 15.1491 9.70653C15.1103 9.72855 15.0778 9.76004 15.0545 9.79806L10.7623 17.3333C10.7405 17.3723 10.7292 17.4163 10.7295 17.461C10.7298 17.5057 10.7417 17.5495 10.7641 17.5882C10.7865 17.6269 10.8185 17.6591 10.8571 17.6817C10.8957 17.7042 10.9394 17.7164 10.9841 17.7169V17.7169ZM13.6817 21.4516C12.4097 21.4543 11.1565 21.1443 10.0325 20.5486C8.90855 19.953 7.94831 19.0901 7.23639 18.036C6.52447 16.9818 6.08271 15.7688 5.95003 14.5037C5.81736 13.2386 5.99783 11.9603 6.47555 10.7813C6.95327 9.60243 7.71359 8.55909 8.68952 7.74323C9.66545 6.92737 10.827 6.36403 12.072 6.10285C13.3169 5.84166 14.6069 5.89063 15.8285 6.24545C17.05 6.60027 18.1656 7.25006 19.0768 8.13756L22.5657 4.64271C20.7821 2.88725 18.5195 1.69802 16.0622 1.22442C13.6049 0.75083 11.0624 1.01399 8.75415 1.98085C6.44591 2.94771 4.47488 4.57515 3.08867 6.6587C1.70246 8.74225 0.962898 11.189 0.962898 13.6916C0.962898 16.1941 1.70246 18.6409 3.08867 20.7244C4.47488 22.808 6.44591 24.4354 8.75415 25.4023C11.0624 26.3691 13.6049 26.6323 16.0622 26.1587C18.5195 25.6851 20.7821 24.4959 22.5657 22.7404L19.0888 19.2515C17.6431 20.6631 15.7023 21.4528 13.6817 21.4516V21.4516ZM12.9084 11.6024C12.9084 11.1993 12.7889 10.8053 12.5649 10.4701C12.3409 10.1349 12.0226 9.87368 11.6502 9.71942C11.2778 9.56516 10.868 9.52479 10.4726 9.60344C10.0772 9.68208 9.71407 9.87619 9.42903 10.1612C9.14399 10.4463 8.94987 10.8094 8.87123 11.2048C8.79258 11.6002 8.83295 12.01 8.98721 12.3824C9.14147 12.7548 9.40271 13.0732 9.73788 13.2971C10.0731 13.5211 10.4671 13.6406 10.8702 13.6406C11.4103 13.639 11.9278 13.4238 12.3097 13.0419C12.6916 12.66 12.9068 12.1425 12.9084 11.6024V11.6024ZM9.95905 11.6024C9.95905 11.4208 10.013 11.2432 10.114 11.0923C10.2151 10.9413 10.3587 10.8238 10.5266 10.7545C10.6946 10.6853 10.8793 10.6675 11.0574 10.7033C11.2354 10.7392 11.3989 10.8272 11.5269 10.956C11.6549 11.0849 11.7418 11.2489 11.7765 11.4272C11.8112 11.6055 11.7922 11.7901 11.7218 11.9576C11.6515 12.1251 11.533 12.2679 11.3814 12.368C11.2298 12.468 11.0519 12.5208 10.8702 12.5196C10.6307 12.5149 10.4026 12.416 10.2354 12.2443C10.0682 12.0727 9.97541 11.842 9.97703 11.6024H9.95905ZM16.2774 17.8128C16.679 17.8117 17.0713 17.6915 17.4047 17.4674C17.7381 17.2434 17.9977 16.9256 18.1506 16.5542C18.3034 16.1828 18.3428 15.7744 18.2637 15.3806C18.1847 14.9867 17.9906 14.6252 17.7062 14.3416C17.4218 14.058 17.0597 13.865 16.6656 13.7871C16.2716 13.7092 15.8633 13.7498 15.4923 13.9038C15.1213 14.0578 14.8043 14.3182 14.5813 14.6523C14.3582 14.9863 14.2392 15.379 14.2392 15.7807C14.2392 16.048 14.292 16.3128 14.3945 16.5597C14.497 16.8067 14.6472 17.031 14.8365 17.2198C15.0259 17.4085 15.2506 17.5581 15.4978 17.6599C15.7451 17.7616 16.01 17.8136 16.2774 17.8128ZM16.2774 14.8635C16.4592 14.8611 16.6377 14.9129 16.7901 15.0122C16.9425 15.1115 17.0619 15.2539 17.1332 15.4213C17.2045 15.5887 17.2244 15.7734 17.1903 15.9521C17.1563 16.1308 17.0699 16.2954 16.9421 16.4249C16.8144 16.5543 16.651 16.6429 16.4727 16.6792C16.2945 16.7156 16.1095 16.6982 15.9412 16.6291C15.7729 16.5601 15.6289 16.4425 15.5276 16.2914C15.4263 16.1404 15.3722 15.9626 15.3722 15.7807C15.3721 15.5395 15.4671 15.308 15.6365 15.1363C15.806 14.9647 16.0362 14.8666 16.2774 14.8635V14.8635Z" fill="#5887F6"/>
</svg>
